<svg width="56" height="62" viewBox="0 0 56 62" fill="none" xmlns="http://www.w3.org/2000/svg">
<g clip-path="url(#clip0)">
<path d="M27.4763 21.0353H0.121765V61.8588H27.4763V21.0353Z" fill="white" stroke="#0069B4"/>
<path d="M55.8782 0.117676H0.121765V20.0236H55.8782V0.117676Z" fill="white" stroke="#0069B4"/>
<path d="M25.4058 23.1058H2.21661V59.8117H25.4058V23.1058Z" fill="url(#paint0_linear)" stroke="#0069B4"/>
<path d="M53.8077 2.16467H2.21661V17.7647H53.8077V2.16467Z" fill="url(#paint1_linear)" stroke="#0069B4"/>
<path d="M55.8782 21.0353H28.5237V61.8588H55.8782V21.0353Z" fill="white" stroke="#0069B4"/>
<path d="M53.9539 59.8588H30.7647V23.153H31.7634H53.9539V59.8588Z" fill="url(#paint2_linear)" stroke="#0069B4"/>
<path d="M9.11005 40.9883H18.0739" stroke="#0069B4"/>
<path d="M13.592 36.6118V45.3648" stroke="#0069B4"/>
<path d="M23.311 10.0941H32.2749" stroke="#0069B4"/>
<path d="M27.7929 5.74121V14.4706" stroke="#0069B4"/>
<path d="M53.8077 23.1058L30.6185 40.8705L53.8321 59.6" stroke="#0069B4" stroke-linejoin="round"/>
<path d="M30.7891 59.6L42.2132 23.1765L53.7591 59.6236" stroke="#0069B4" stroke-linecap="round" stroke-linejoin="round"/>
</g>
<defs>
<linearGradient id="paint0_linear" x1="13.7955" y1="26.7412" x2="13.7955" y2="58.49" gradientUnits="userSpaceOnUse">
<stop stop-color="white"/>
<stop offset="1" stop-color="#D0EAFB"/>
</linearGradient>
<linearGradient id="paint1_linear" x1="28.0021" y1="3.72288" x2="28.0021" y2="17.2233" gradientUnits="userSpaceOnUse">
<stop stop-color="white"/>
<stop offset="1" stop-color="#D0EAFB"/>
</linearGradient>
<linearGradient id="paint2_linear" x1="42.3569" y1="26.7844" x2="42.3569" y2="58.5329" gradientUnits="userSpaceOnUse">
<stop stop-color="white"/>
<stop offset="1" stop-color="#D0EAFB"/>
</linearGradient>
<clipPath id="clip0">
<rect width="56" height="62" fill="white"/>
</clipPath>
</defs>
</svg>
