<svg width="18" height="18" viewBox="0 0 18 18" fill="none" xmlns="http://www.w3.org/2000/svg">
<path fill-rule="evenodd" clip-rule="evenodd" d="M2.13332 7.8555C1.50125 7.8555 0.988866 8.36789 0.988867 8.99995C0.988867 9.63201 1.50126 10.1444 2.13332 10.1444L7.85544 10.1444L7.85545 15.8668C7.85545 16.4988 8.36784 17.0112 8.9999 17.0112C9.63196 17.0112 10.1444 16.4988 10.1444 15.8668L10.1443 10.1444L15.8667 10.1444C16.4988 10.1444 17.0112 9.63202 17.0112 8.99996C17.0112 8.3679 16.4988 7.85551 15.8667 7.85551L10.1443 7.8555L10.1443 2.13333C10.1443 1.50126 9.63195 0.988876 8.99989 0.988875C8.36783 0.988875 7.85544 1.50126 7.85544 2.13333L7.85544 7.8555L2.13332 7.8555Z" fill="#6DB6FA"/>
</svg>
